<?xml version="1.0" encoding="utf-8"?>
<svg width="512px" height="512px" viewBox="0 0 512 512" fill="none" xmlns="http://www.w3.org/2000/svg">
  <rect width="512" height="512" style="fill: rgb(186, 218, 85);"/>
  <path d="M 246.233 21.397 L 246.233 47.383 L 169.533 47.383 L 169.533 148.223 L 132.432 148.223 L 132.432 122.54 L 94.727 122.54 L 90.941 126.631 L 68.529 126.631 L 70.725 139.966 L 66.636 179.892 L 45.436 179.892 L 43.543 213.834 L 49.222 213.834 L 49.222 236.032 L 62.548 229.971 L 66.636 252.7 L 64.138 283.535 L 40.666 286.036 L 37.486 334.826 L 93.212 334.826 L 93.212 330.356 L 118.577 330.356 L 118.577 326.568 L 144.245 326.568 L 144.245 322.78 L 181.344 322.78 L 181.344 354.449 L 188.31 354.449 L 187.704 430.211 L 181.042 430.211 L 180.436 497.11 L 284.695 441.348 L 284.695 455.592 L 332.548 430.514 L 332.548 413.089 L 377.523 391.876 L 377.523 377.329 L 372.146 371.95 L 371.844 362.101 L 382.898 354.146 L 395.921 354.146 L 395.921 227.623 L 445.969 227.623 L 445.969 201.333 L 474.514 201.333 L 474.514 182.317 L 462.171 149.966 L 397.209 149.966 L 397.209 123.979 L 428.554 123.979 L 345.874 68.218 L 342.391 72.007 L 261.905 16.245 C 260.77 15.715 260.088 15.108 258.725 14.957 C 257.287 14.806 255.924 14.882 254.637 15.488 C 251.683 16.851 253.728 20.564 251.533 21.549 C 250.019 22.306 247.596 21.397 246.233 21.397 Z" stroke-width="3" stroke-miterlimit="10" stroke-linejoin="round" style="fill: rgb(255, 255, 255);"/>
  <g style="stroke: none; stroke-width: 0; stroke-dasharray: none; stroke-linecap: butt; stroke-linejoin: miter; stroke-miterlimit: 10; fill: none; fill-rule: nonzero; opacity: 1;" transform="matrix(4.295026, 0, 0, 4.295026, 62.723839, 44.873104)">
    <path d="M 45.745 59.527 H 18.617 c -0.719 0 -1.382 -0.386 -1.738 -1.01 c -0.356 -0.625 -0.349 -1.393 0.018 -2.011 l 15.68 -26.437 c 0.36 -0.607 1.014 -0.98 1.72 -0.98 h 25.691 c 0.704 0 1.356 0.37 1.717 0.975 c 0.361 0.604 0.378 1.354 0.044 1.974 L 47.506 58.476 C 47.157 59.123 46.48 59.527 45.745 59.527 z M 22.128 55.527 h 22.422 L 56.639 33.09 H 35.436 L 22.128 55.527 z" style="stroke: none; stroke-width: 1; stroke-dasharray: none; stroke-linecap: butt; stroke-linejoin: miter; stroke-miterlimit: 10; fill: rgb(0,0,0); fill-rule: nonzero; opacity: 1;" transform=" matrix(1 0 0 1 0 0) " stroke-linecap="round"/>
    <path d="M 18.617 76.145 C 8.352 76.145 0 67.793 0 57.527 s 8.352 -18.617 18.617 -18.617 c 10.265 0 18.617 8.351 18.617 18.617 S 28.882 76.145 18.617 76.145 z M 18.617 42.911 C 10.557 42.911 4 49.468 4 57.527 s 6.557 14.617 14.617 14.617 c 8.06 0 14.617 -6.558 14.617 -14.617 S 26.677 42.911 18.617 42.911 z" style="stroke: none; stroke-width: 1; stroke-dasharray: none; stroke-linecap: butt; stroke-linejoin: miter; stroke-miterlimit: 10; fill: rgb(0,0,0); fill-rule: nonzero; opacity: 1;" transform=" matrix(1 0 0 1 0 0) " stroke-linecap="round"/>
    <path d="M 71.383 76.145 c -10.266 0 -18.617 -8.352 -18.617 -18.617 s 8.352 -18.617 18.617 -18.617 S 90 47.262 90 57.527 S 81.648 76.145 71.383 76.145 z M 71.383 42.911 c -8.06 0 -14.617 6.557 -14.617 14.617 s 6.558 14.617 14.617 14.617 S 86 65.587 86 57.527 S 79.442 42.911 71.383 42.911 z" style="stroke: none; stroke-width: 1; stroke-dasharray: none; stroke-linecap: butt; stroke-linejoin: miter; stroke-miterlimit: 10; fill: rgb(0,0,0); fill-rule: nonzero; opacity: 1;" transform=" matrix(1 0 0 1 0 0) " stroke-linecap="round"/>
    <path d="M 71.384 59.528 c -0.774 0 -1.512 -0.453 -1.838 -1.209 l -14.378 -33.36 c -0.437 -1.014 0.031 -2.191 1.045 -2.628 c 1.019 -0.437 2.191 0.031 2.629 1.045 L 73.22 56.735 c 0.437 1.015 -0.031 2.191 -1.045 2.629 C 71.916 59.476 71.647 59.528 71.384 59.528 z" style="stroke: none; stroke-width: 1; stroke-dasharray: none; stroke-linecap: butt; stroke-linejoin: miter; stroke-miterlimit: 10; fill: rgb(0,0,0); fill-rule: nonzero; opacity: 1;" transform=" matrix(1 0 0 1 0 0) " stroke-linecap="round"/>
    <path d="M 45.692 59.528 c -0.774 0 -1.512 -0.453 -1.837 -1.209 l -14.378 -33.36 c -0.438 -1.014 0.03 -2.191 1.045 -2.628 c 1.014 -0.437 2.192 0.031 2.628 1.045 l 14.379 33.359 c 0.437 1.015 -0.031 2.191 -1.045 2.629 C 46.225 59.476 45.957 59.528 45.692 59.528 z" style="stroke: none; stroke-width: 1; stroke-dasharray: none; stroke-linecap: butt; stroke-linejoin: miter; stroke-miterlimit: 10; fill: rgb(0,0,0); fill-rule: nonzero; opacity: 1;" transform=" matrix(1 0 0 1 0 0) " stroke-linecap="round"/>
    <path d="M 67.434 33.09 c -1.104 0 -2 -0.896 -2 -2 s 0.896 -2 2 -2 c 0.806 0 1.462 -0.655 1.462 -1.461 s -0.656 -1.461 -1.462 -1.461 H 57.005 c -1.104 0 -2 -0.896 -2 -2 s 0.896 -2 2 -2 h 10.429 c 3.012 0 5.462 2.45 5.462 5.461 S 70.445 33.09 67.434 33.09 z" style="stroke: none; stroke-width: 1; stroke-dasharray: none; stroke-linecap: butt; stroke-linejoin: miter; stroke-miterlimit: 10; fill: rgb(0,0,0); fill-rule: nonzero; opacity: 1;" transform=" matrix(1 0 0 1 0 0) " stroke-linecap="round"/>
    <path d="M 37.043 26.168 H 25.639 c -1.104 0 -2 -0.896 -2 -2 s 0.896 -2 2 -2 h 11.404 c 1.104 0 2 0.896 2 2 S 38.147 26.168 37.043 26.168 z" style="stroke: none; stroke-width: 1; stroke-dasharray: none; stroke-linecap: butt; stroke-linejoin: miter; stroke-miterlimit: 10; fill: rgb(0,0,0); fill-rule: nonzero; opacity: 1;" transform=" matrix(1 0 0 1 0 0) " stroke-linecap="round"/>
  </g>
</svg>